<svg xmlns="http://www.w3.org/2000/svg" width="420" height="300" viewBox="0 0 420 300">
  <rect x="1" y="1" width="418" height="298" fill="#ffffff" stroke="#d0d7de" stroke-width="2"/>
  <rect x="20" y="18" width="380" height="26" fill="#f2f4f7"/>
  <text x="30" y="36" font-family="Arial, sans-serif" font-size="14" fill="#1f2937">Student Tick-off Sheet</text>

  <rect x="20" y="60" width="380" height="24" fill="#f8fafc" stroke="#e5e7eb"/>
  <text x="28" y="76" font-family="Arial, sans-serif" font-size="11" fill="#374151">Skill</text>
  <text x="290" y="76" font-family="Arial, sans-serif" font-size="11" fill="#374151">Notes</text>
  <text x="360" y="76" font-family="Arial, sans-serif" font-size="11" fill="#374151">Tick</text>

  <rect x="20" y="84" width="380" height="32" fill="#ffffff" stroke="#e5e7eb"/>
  <rect x="360" y="92" width="14" height="14" fill="#ffffff" stroke="#9ca3af"/>
  <rect x="20" y="116" width="380" height="32" fill="#ffffff" stroke="#e5e7eb"/>
  <rect x="360" y="124" width="14" height="14" fill="#ffffff" stroke="#9ca3af"/>
  <rect x="20" y="148" width="380" height="32" fill="#ffffff" stroke="#e5e7eb"/>
  <rect x="360" y="156" width="14" height="14" fill="#ffffff" stroke="#9ca3af"/>
  <rect x="20" y="180" width="380" height="32" fill="#ffffff" stroke="#e5e7eb"/>
  <rect x="360" y="188" width="14" height="14" fill="#ffffff" stroke="#9ca3af"/>
  <rect x="20" y="212" width="380" height="32" fill="#ffffff" stroke="#e5e7eb"/>
  <rect x="360" y="220" width="14" height="14" fill="#ffffff" stroke="#9ca3af"/>

  <rect x="20" y="252" width="380" height="30" fill="#f9fafb" stroke="#e5e7eb"/>
  <text x="28" y="271" font-family="Arial, sans-serif" font-size="10" fill="#6b7280">Optional notes</text>
</svg>
